<?xml version="1.0" encoding="UTF-8"?>
<!DOCTYPE svg PUBLIC "-//W3C//DTD SVG 1.1//EN" "http://www.w3.org/Graphics/SVG/1.1/DTD/svg11.dtd">
<!-- Creator: CorelDRAW X7 -->
<svg xmlns="http://www.w3.org/2000/svg" xml:space="preserve" width="302px" height="302px" version="1.1" style="shape-rendering:geometricPrecision; text-rendering:geometricPrecision; image-rendering:optimizeQuality; fill-rule:evenodd; clip-rule:evenodd"
viewBox="0 0 37 37"
 xmlns:xlink="http://www.w3.org/1999/xlink">
 <defs>
  <style type="text/css">
   <![CDATA[
    .fil0 {fill:#00AEEF;fill-rule:nonzero}
    .fil1 {fill:white;fill-rule:nonzero}
   ]]>
  </style>
 </defs>
 <g id="Layer_x0020_1">
  <metadata id="CorelCorpID_0Corel-Layer"/>
  <path class="fil0" d="M37 18c0,-10 -8,-18 -19,-18 -10,0 -18,8 -18,18 0,11 8,19 18,19 11,0 19,-8 19,-19z"/>
  <path class="fil1" d="M19 24c-3,0 -6,-2 -6,-6 0,-3 3,-6 6,-6 3,0 6,3 6,6 0,4 -3,6 -6,6zm1 -16l-11 0 0 18c0,1 1,2 2,2l9 0c3,0 5,0 7,-2 2,-2 3,-5 3,-8 0,-3 -1,-5 -3,-7 -2,-2 -4,-3 -7,-3z"/>
  <path class="fil1" d="M19 24c-3,0 -6,-2 -6,-6 0,-3 3,-6 6,-6 3,0 6,3 6,6 0,4 -3,6 -6,6zm1 -16l-11 0 0 18c0,1 1,2 2,2l9 0c3,0 5,0 7,-2 2,-2 3,-5 3,-8 0,-3 -1,-5 -3,-7 -2,-2 -4,-3 -7,-3z"/>
 </g>
</svg>
