<?xml version="1.0" encoding="UTF-8"?>
<!DOCTYPE svg PUBLIC "-//W3C//DTD SVG 1.1//EN" "http://www.w3.org/Graphics/SVG/1.1/DTD/svg11.dtd">
<!-- Creator: CorelDRAW X7 -->
<svg xmlns="http://www.w3.org/2000/svg" xml:space="preserve" width="643px" height="100px" version="1.1" style="shape-rendering:geometricPrecision; text-rendering:geometricPrecision; image-rendering:optimizeQuality; fill-rule:evenodd; clip-rule:evenodd"
viewBox="0 0 511 80"
 xmlns:xlink="http://www.w3.org/1999/xlink">
 <defs>
  <style type="text/css">
   <![CDATA[
    .fil0 {fill:#00AEEF;fill-rule:nonzero}
    .fil2 {fill:#B2B2B2;fill-rule:nonzero}
    .fil1 {fill:white;fill-rule:nonzero}
   ]]>
  </style>
 </defs>
 <g id="Layer_x0020_1">
  <metadata id="CorelCorpID_0Corel-Layer"/>
  <path class="fil0" d="M78 41c0,-22 -17,-40 -39,-40 -21,0 -39,18 -39,40 0,21 18,39 39,39 22,0 39,-18 39,-39z"/>
  <path class="fil1" d="M40 53c-7,0 -12,-6 -12,-13 0,-6 5,-12 12,-12 7,0 13,6 13,12 0,7 -6,13 -13,13zm3 -34l-25 0 0 38c0,3 2,5 5,5l20 0c6,0 11,-2 15,-6 4,-4 6,-9 6,-16 0,-6 -2,-11 -6,-15 -4,-4 -9,-6 -15,-6z"/>
  <path class="fil0" d="M370 39c-2,2 -5,3 -8,3 -3,0 -6,-1 -8,-3 -2,-2 -3,-5 -3,-8 0,-3 1,-6 3,-8 2,-2 5,-3 8,-3 3,0 6,1 8,3 2,2 3,5 3,8 0,3 -1,6 -3,8zm8 -28l-5 0 0 5c-3,-4 -7,-6 -13,-6 -5,0 -10,2 -13,6 -4,4 -6,9 -6,15 0,6 2,11 6,15 3,4 8,6 13,6 6,0 10,-2 13,-6 0,2 2,4 5,4l5 0 0 -34c0,-2 -2,-5 -5,-5z"/>
  <path class="fil0" d="M433 10c-5,0 -9,2 -12,6 -2,-4 -5,-6 -10,-6 -5,0 -9,2 -11,5 0,-2 -2,-4 -4,-4l-6 0 0 35c0,2 2,4 4,4l6 0 0 -22c0,-2 1,-5 2,-6 1,-2 3,-2 5,-2 2,0 4,0 5,2 1,1 2,3 2,5l0 19c0,2 2,4 4,4l6 0 0 -22c0,-2 1,-5 2,-6 1,-2 3,-2 5,-2 2,0 4,0 5,2 1,1 2,3 2,5l0 19c0,2 2,4 4,4l6 0 0 -24c0,-5 -1,-8 -4,-11 -3,-3 -6,-5 -11,-5z"/>
  <path class="fil0" d="M454 46c0,2 2,4 5,4l5 0 0 -39 -10 0 0 35z"/>
  <path class="fil0" d="M498 39c-2,2 -4,3 -8,3 -3,0 -5,-1 -7,-3 -2,-2 -3,-5 -3,-8 0,-3 1,-6 3,-8 2,-2 4,-3 7,-3 4,0 6,1 8,3 2,2 3,5 3,8 0,3 -1,6 -3,8zm8 -28l-5 0 0 5c-3,-4 -7,-6 -12,-6 -6,0 -10,2 -14,6 -4,4 -6,9 -6,15 0,6 2,11 6,15 4,4 8,6 14,6 5,0 9,-2 12,-6 0,2 2,4 5,4l5 0 0 -33c0,-3 -2,-6 -5,-6z"/>
  <path class="fil0" d="M314 42c-6,0 -11,-5 -11,-12 0,-6 5,-11 11,-11 7,0 12,5 12,11 0,7 -5,12 -12,12zm3 -32l-23 0 0 36c0,2 2,4 4,4l19 0c5,0 10,-1 14,-5 3,-4 5,-9 5,-15 0,-5 -2,-10 -5,-14 -4,-4 -9,-6 -14,-6z"/>
  <path class="fil0" d="M101 22c2,-2 4,-2 6,-2 3,0 5,0 7,2 2,2 2,4 2,7 0,2 0,5 -2,6 -2,2 -4,3 -7,3 -2,0 -4,-1 -6,-3 -2,-1 -3,-4 -3,-6 0,-3 1,-5 3,-7zm-8 30l5 0 0 -9c4,3 7,3 11,3 4,0 8,-1 11,-5 4,-3 5,-7 5,-12 0,-5 -1,-9 -5,-13 -3,-3 -7,-5 -11,-5 -5,0 -8,2 -11,5 0,-2 -2,-4 -4,-4l-5 0 0 37c0,2 2,3 4,3z"/>
  <path class="fil0" d="M162 11l5 0 0 39 -5 0c-3,0 -5,-2 -5,-4 -2,4 -6,5 -11,5 -5,0 -8,-1 -11,-4 -3,-3 -4,-7 -4,-12l0 -20c0,-2 2,-4 4,-4l6 0 0 23c0,2 1,4 2,6 1,1 3,2 6,2 2,0 4,-1 6,-3 1,-1 2,-4 2,-7l0 -17c0,-2 2,-4 5,-4z"/>
  <path class="fil0" d="M196 10c5,0 9,1 11,4 3,3 5,7 5,12l0 24 -6 0c-3,0 -5,-2 -5,-4l0 -19c0,-2 0,-4 -2,-6 -1,-1 -3,-2 -6,-2 -2,0 -5,1 -6,3 -2,1 -3,4 -3,7l0 21 -6 0c-2,0 -4,-2 -4,-4l0 -35 6 0c2,0 4,2 4,4 3,-3 7,-5 12,-5z"/>
  <path class="fil0" d="M257 38c2,2 5,3 8,3 3,0 5,-1 7,-3 2,-2 3,-4 3,-7 0,-4 -1,-6 -3,-8 -2,-2 -4,-3 -7,-3 -3,0 -6,1 -8,3 -2,2 -3,4 -3,8 0,3 1,5 3,7zm23 7c-4,4 -9,6 -15,6 -6,0 -11,-2 -15,-6 -4,-4 -6,-9 -6,-14 0,-6 2,-11 6,-15 4,-4 9,-6 15,-6 6,0 11,2 15,6 4,4 6,9 6,15 0,5 -2,10 -6,14z"/>
  <polygon class="fil0" points="109,17 89,17 89,11 109,11 "/>
  <path class="fil0" d="M236 21l-3 0 0 16c0,1 0,2 1,3 0,0 1,0 1,1 1,0 2,0 2,0l4 -1 0 10c-6,1 -11,0 -14,-2 -3,-2 -4,-6 -4,-11l0 -16 -7 0 0 -6c0,-2 2,-4 4,-4l3 0 0 -8 10 -3 0 11 8 0 0 4c0,3 -2,6 -5,6z"/>
  <path class="fil1" d="M40 53c-7,0 -12,-6 -12,-13 0,-6 5,-12 12,-12 7,0 13,6 13,12 0,7 -6,13 -13,13zm3 -34l-25 0 0 38c0,3 2,5 5,5l20 0c6,0 11,-2 15,-6 4,-4 6,-9 6,-16 0,-6 -2,-11 -6,-15 -4,-4 -9,-6 -15,-6z"/>
  <path class="fil2" d="M90 67l2 0c0,0 0,1 0,1 1,0 1,1 2,1 0,0 1,0 1,-1 1,0 1,0 1,-1 0,0 0,0 0,0 -1,0 -1,-1 -1,-1 0,0 -1,0 -2,0 -1,0 -1,-1 -2,-1 0,-1 -1,-1 -1,-2 0,0 0,-1 1,-1 0,-1 0,-1 1,-1 0,-1 1,-1 2,-1 1,0 2,1 2,1 1,1 1,1 1,2l-2 0c0,0 0,-1 0,-1 0,0 -1,0 -1,0 -1,0 -1,0 -2,0 0,0 0,1 0,1 0,0 0,0 0,0 1,1 1,1 2,1 1,0 2,1 2,1 1,0 1,0 1,1 1,0 1,1 1,1 0,1 0,1 -1,2 0,0 -1,1 -1,1 -1,0 -1,0 -2,0 -1,0 -2,0 -3,-1 -1,0 -1,-1 -1,-2z"/>
  <path id="1" class="fil2" d="M110 65c0,-1 0,-1 1,-2 0,-1 0,-1 1,-1 0,-1 0,-1 1,-1 0,-1 1,-1 2,-1 1,0 2,1 3,2 1,1 2,2 2,3 0,2 -1,3 -2,4 -1,1 -2,1 -3,1 -2,0 -3,0 -3,-1 -1,-1 -2,-2 -2,-4zm2 0c0,1 1,2 1,3 1,0 1,1 2,1 1,0 1,-1 2,-1 0,-1 1,-2 1,-3 0,-1 -1,-2 -1,-2 -1,-1 -1,-1 -2,-1 -1,0 -2,0 -2,1 -1,0 -1,1 -1,2z"/>
  <polygon id="2" class="fil2" points="133,70 133,61 135,61 135,68 139,68 139,70 "/>
  <path id="3" class="fil2" d="M152 60l2 0 0 6c0,1 0,1 0,1 0,1 0,1 1,1 0,0 0,1 1,1 0,0 1,0 1,-1 0,0 1,0 1,-1 0,0 0,0 0,-1l0 -6 2 0 0 6c0,1 0,2 0,2 -1,0 -1,1 -1,1 0,1 -1,1 -1,1 -1,0 -1,0 -2,0 -1,0 -2,0 -2,0 -1,0 -1,-1 -1,-1 0,0 -1,-1 -1,-1 0,0 0,-1 0,-2l0 -6z"/>
  <path id="4" class="fil2" d="M179 67l2 0c0,1 -1,2 -1,2 -1,1 -2,1 -3,1 -1,0 -2,0 -3,-1 -1,-1 -1,-2 -1,-4 0,-1 0,-2 1,-3 1,-1 2,-2 3,-2 2,0 3,1 3,1 1,1 1,1 1,2l-2 1c0,-1 0,-1 0,-2 -1,0 -1,0 -2,0 0,0 -1,0 -1,1 -1,0 -1,1 -1,2 0,1 0,2 1,3 0,0 1,1 1,1 1,0 1,-1 2,-1 0,0 0,-1 0,-1z"/>
  <polygon id="5" class="fil2" points="194,70 194,60 196,60 196,70 "/>
  <path id="6" class="fil2" d="M209 65c0,-1 0,-1 1,-2 0,-1 0,-1 0,-1 1,-1 1,-1 2,-1 0,-1 1,-1 2,-1 1,0 2,1 3,2 1,1 2,2 2,3 0,2 -1,3 -2,4 -1,1 -2,1 -3,1 -2,0 -3,0 -4,-1 0,-1 -1,-2 -1,-4zm2 0c0,1 0,2 1,3 0,0 1,1 2,1 1,0 1,-1 2,-1 0,-1 0,-2 0,-3 0,-1 0,-2 0,-2 -1,-1 -1,-1 -2,-1 -1,0 -2,0 -2,1 -1,0 -1,1 -1,2z"/>
  <polygon id="7" class="fil2" points="231,70 231,60 233,60 237,67 237,60 239,60 239,70 237,70 233,64 233,70 "/>
  <polygon id="8" class="fil2" points="253,70 253,60 260,60 260,62 255,62 255,64 259,64 259,66 255,66 255,68 260,68 260,70 "/>
  <path id="9" class="fil2" d="M273 67l1 0c1,0 1,1 1,1 0,0 1,1 2,1 0,0 1,0 1,-1 0,0 0,0 0,-1 0,0 0,0 0,0 0,0 0,-1 -1,-1 0,0 0,0 -1,0 -1,0 -2,-1 -2,-1 -1,-1 -1,-1 -1,-2 0,0 0,-1 0,-1 1,-1 1,-1 1,-1 1,-1 2,-1 2,-1 2,0 2,1 3,1 1,1 1,1 1,2l-2 0c0,0 0,-1 0,-1 -1,0 -1,0 -2,0 0,0 -1,0 -1,0 0,0 0,1 0,1 0,0 0,0 0,0 0,1 1,1 2,1 1,0 1,1 2,1 0,0 1,0 1,1 0,0 0,1 0,1 0,1 0,1 0,2 0,0 -1,1 -1,1 -1,0 -2,0 -3,0 -1,0 -2,0 -2,-1 -1,0 -1,-1 -1,-2z"/>
  <polygon id="10" class="fil2" points="286,70 286,60 288,60 288,70 "/>
  <polygon id="11" class="fil2" points="301,70 301,60 303,60 307,67 307,60 309,60 309,70 307,70 303,64 303,70 "/>
  <polygon id="12" class="fil2" points="324,70 324,62 321,62 321,60 329,60 329,62 326,62 326,70 "/>
  <polygon id="13" class="fil2" points="342,70 342,60 349,60 349,62 344,62 344,64 348,64 348,66 344,66 344,68 349,68 349,70 "/>
  <polygon id="14" class="fil2" points="362,70 362,61 364,61 364,68 369,68 369,70 "/>
  <polygon id="15" class="fil2" points="382,70 382,60 384,60 384,70 "/>
  <path id="16" class="fil2" d="M401 67l0 -2 5 0 0 4c-1,0 -1,1 -2,1 -1,0 -2,0 -2,0 -1,0 -2,0 -3,0 -1,-1 -1,-1 -2,-2 0,-1 0,-2 0,-3 0,-1 0,-2 0,-2 1,-1 1,-2 2,-2 1,-1 1,-1 2,-1 2,0 3,1 3,1 1,1 1,1 2,2l-2 1c-1,-1 -1,-1 -1,-2 -1,0 -1,0 -2,0 0,0 -1,0 -2,1 0,0 0,1 0,2 0,1 0,2 0,3 1,0 2,1 2,1 1,0 1,0 2,-1 0,0 0,0 1,0l0 -1 -3 0z"/>
  <polygon id="17" class="fil2" points="419,70 419,60 426,60 426,62 421,62 421,64 426,64 426,66 421,66 421,68 426,68 426,70 "/>
  <polygon id="18" class="fil2" points="439,70 439,60 441,60 445,67 445,60 447,60 447,70 445,70 441,64 441,70 "/>
  <polygon id="19" class="fil2" points="463,70 463,62 460,62 460,60 467,60 467,62 465,62 465,70 "/>
  <polygon id="20" class="fil2" points="480,70 480,60 487,60 487,62 482,62 482,64 487,64 487,66 482,66 482,68 487,68 487,70 "/>
  <path id="21" class="fil2" d="M500 67l2 0c0,0 0,1 1,1 0,0 0,1 1,1 1,0 1,0 1,-1 1,0 1,0 1,-1 0,0 0,0 0,0 0,0 -1,-1 -1,-1 0,0 -1,0 -2,0 -1,0 -1,-1 -2,-1 0,-1 -1,-1 -1,-2 0,0 0,-1 1,-1 0,-1 0,-1 1,-1 0,-1 1,-1 2,-1 1,0 2,1 3,1 0,1 1,1 1,2l-2 0c0,0 -1,-1 -1,-1 0,0 -1,0 -1,0 -1,0 -1,0 -1,0 -1,0 -1,1 -1,1 0,0 0,0 0,0 1,1 1,1 2,1 1,0 2,1 2,1 1,0 1,0 1,1 1,0 1,1 1,1 0,1 0,1 -1,2 0,0 0,1 -1,1 -1,0 -1,0 -2,0 -1,0 -2,0 -3,-1 0,0 -1,-1 -1,-2z"/>
 </g>
</svg>
